<svg width="1440" height="480" viewBox="0 0 1440 480" fill="none" xmlns="http://www.w3.org/2000/svg">
<rect width="1440" height="480" fill="black"/>
<rect opacity="0.05" x="0.5" y="0.5" width="119" height="119" fill="black" stroke="white"/>
<rect opacity="0.05" x="0.5" y="120.5" width="119" height="119" fill="black" stroke="white"/>
<rect opacity="0.05" x="0.5" y="240.5" width="119" height="119" fill="black" stroke="white"/>
<rect opacity="0.05" x="0.5" y="360.5" width="119" height="119" fill="black" stroke="white"/>
<rect opacity="0.05" x="120.5" y="0.5" width="119" height="119" fill="white" fill-opacity="0.5" stroke="white"/>
<rect opacity="0.05" x="120.5" y="120.5" width="119" height="119" fill="black" stroke="white"/>
<rect opacity="0.05" x="120.5" y="240.5" width="119" height="119" fill="black" stroke="white"/>
<rect opacity="0.05" x="120.5" y="360.5" width="119" height="119" fill="white" fill-opacity="0.5" stroke="white"/>
<rect opacity="0.05" x="240.5" y="0.5" width="119" height="119" fill="black" stroke="white"/>
<rect opacity="0.05" x="240.5" y="120.5" width="119" height="119" fill="black" stroke="white"/>
<rect opacity="0.05" x="240.5" y="240.5" width="119" height="119" fill="black" stroke="white"/>
<rect opacity="0.05" x="240.5" y="360.5" width="119" height="119" fill="black" stroke="white"/>
<rect opacity="0.05" x="360.5" y="0.5" width="119" height="119" fill="black" stroke="white"/>
<rect opacity="0.05" x="360.5" y="120.5" width="119" height="119" fill="black" stroke="white"/>
<rect opacity="0.05" x="360.5" y="240.5" width="119" height="119" fill="black" stroke="white"/>
<rect opacity="0.05" x="360.5" y="360.5" width="119" height="119" fill="black" stroke="white"/>
<rect opacity="0.05" x="480.5" y="0.5" width="119" height="119" fill="black" stroke="white"/>
<rect opacity="0.05" x="480.5" y="120.5" width="119" height="119" fill="black" stroke="white"/>
<rect opacity="0.05" x="480.5" y="240.5" width="119" height="119" fill="black" stroke="white"/>
<rect opacity="0.05" x="480.5" y="360.5" width="119" height="119" fill="white" fill-opacity="0.5" stroke="white"/>
<rect opacity="0.05" x="600.5" y="0.5" width="119" height="119" fill="black" stroke="white"/>
<rect opacity="0.05" x="600.5" y="120.5" width="119" height="119" fill="white" fill-opacity="0.5" stroke="white"/>
<rect opacity="0.05" x="600.5" y="240.5" width="119" height="119" fill="black" stroke="white"/>
<rect opacity="0.05" x="600.5" y="360.5" width="119" height="119" fill="black" stroke="white"/>
<rect opacity="0.05" x="720.5" y="0.5" width="119" height="119" fill="black" stroke="white"/>
<rect opacity="0.05" x="720.5" y="120.5" width="119" height="119" fill="white" fill-opacity="0.5" stroke="white"/>
<rect opacity="0.05" x="720.5" y="240.5" width="119" height="119" fill="black" stroke="white"/>
<rect opacity="0.05" x="720.5" y="360.5" width="119" height="119" fill="black" stroke="white"/>
<rect opacity="0.05" x="840.5" y="0.5" width="119" height="119" fill="black" stroke="white"/>
<rect opacity="0.05" x="840.5" y="120.5" width="119" height="119" fill="black" stroke="white"/>
<rect opacity="0.05" x="840.5" y="240.5" width="119" height="119" fill="black" stroke="white"/>
<rect opacity="0.05" x="840.5" y="360.5" width="119" height="119" fill="white" fill-opacity="0.5" stroke="white"/>
<rect opacity="0.05" x="960.5" y="0.5" width="119" height="119" fill="black" stroke="white"/>
<rect opacity="0.05" x="960.5" y="120.5" width="119" height="119" fill="black" stroke="white"/>
<rect opacity="0.05" x="960.5" y="240.5" width="119" height="119" fill="black" stroke="white"/>
<rect opacity="0.05" x="960.5" y="360.5" width="119" height="119" fill="black" stroke="white"/>
<rect opacity="0.05" x="1080.5" y="0.5" width="119" height="119" fill="black" stroke="white"/>
<rect opacity="0.05" x="1080.5" y="120.5" width="119" height="119" fill="black" stroke="white"/>
<rect opacity="0.05" x="1080.5" y="240.5" width="119" height="119" fill="black" stroke="white"/>
<rect opacity="0.05" x="1080.5" y="360.5" width="119" height="119" fill="black" stroke="white"/>
<rect opacity="0.05" x="1200.5" y="0.5" width="119" height="119" fill="white" fill-opacity="0.5" stroke="white"/>
<rect opacity="0.05" x="1200.5" y="120.5" width="119" height="119" fill="black" stroke="white"/>
<rect opacity="0.05" x="1200.5" y="240.5" width="119" height="119" fill="black" stroke="white"/>
<rect opacity="0.05" x="1200.5" y="360.5" width="119" height="119" fill="white" fill-opacity="0.5" stroke="white"/>
<rect opacity="0.05" x="1320.5" y="0.5" width="119" height="119" fill="black" stroke="white"/>
<rect opacity="0.05" x="1320.5" y="120.5" width="119" height="119" fill="black" stroke="white"/>
<rect opacity="0.05" x="1320.5" y="240.5" width="119" height="119" fill="black" stroke="white"/>
<rect opacity="0.05" x="1320.5" y="360.5" width="119" height="119" fill="black" stroke="white"/>
</svg>
