<svg xmlns="http://www.w3.org/2000/svg" width="46" height="46" viewBox="0 0 46 46" fill="none">
  <rect width="46" height="46" rx="20" fill="black"/>
  <path d="M27.8835 10.2227H18.1174C13.761 10.2227 10.2227 13.761 10.2227 18.1174V27.8835C10.2227 32.2399 13.761 35.7782 18.1174 35.7782H27.8835C32.2399 35.7782 35.7782 32.2399 35.7782 27.8835V18.1174C35.7782 13.761 32.2399 10.2227 27.8835 10.2227ZM32.9251 27.8937C32.9251 30.6753 30.6651 32.9455 27.8733 32.9455H18.1071C15.3256 32.9455 13.0553 30.6855 13.0553 27.8937V18.1276C13.0553 15.346 15.3154 13.0758 18.1071 13.0758H27.8733C30.6548 13.0758 32.9251 15.3358 32.9251 18.1276V27.8937Z" fill="white"/>
  <path d="M22.9956 16.4707C19.3959 16.4707 16.4609 19.4057 16.4609 23.0053C16.4609 26.605 19.3959 29.5399 22.9956 29.5399C26.5952 29.5399 29.5302 26.605 29.5302 23.0053C29.5302 19.4057 26.5952 16.4707 22.9956 16.4707ZM22.9956 26.9731C20.8071 26.9731 19.0277 25.1937 19.0277 23.0053C19.0277 20.8169 20.8071 19.0375 22.9956 19.0375C25.184 19.0375 26.9634 20.8169 26.9634 23.0053C26.9634 25.1937 25.184 26.9731 22.9956 26.9731Z" fill="white"/>
  <path d="M30.0282 17.1882C30.6302 17.0901 31.0387 16.5226 30.9407 15.9206C30.8427 15.3185 30.2751 14.91 29.6731 15.008C29.0711 15.1061 28.6625 15.6736 28.7605 16.2756C28.8586 16.8777 29.4261 17.2862 30.0282 17.1882Z" fill="white"/>
</svg>