<svg xmlns="http://www.w3.org/2000/svg" width="46" height="46" viewBox="0 0 46 46" fill="none">
  <g clip-path="url(#clip0_2293_2557)">
    <path d="M23 46C35.7025 46 46 35.7025 46 23C46 10.2975 35.7025 0 23 0C10.2975 0 0 10.2975 0 23C0 35.7025 10.2975 46 23 46Z" fill="black"/>
    <path d="M24.7713 19.8665C25.1461 19.4576 25.4528 19.0146 25.8617 18.6398C27.0543 17.5154 28.4513 16.9361 30.1209 16.9702C31.0409 16.9702 31.9268 17.0383 32.7787 17.3109C34.7891 17.8902 35.9476 19.2531 36.4928 21.2294C36.9017 22.6946 36.9698 24.1939 37.0039 25.6931C37.0039 28.862 37.0039 32.0309 37.0039 35.2339C37.0039 35.5405 36.9357 35.6087 36.6291 35.6087C34.9935 35.6087 33.358 35.6087 31.7224 35.6087C31.4498 35.6087 31.3817 35.5065 31.3817 35.2339C31.3817 32.2013 31.3817 29.2028 31.3817 26.1702C31.3817 25.4205 31.3476 24.6709 31.1091 23.9213C30.7343 22.5583 29.7461 21.8768 28.315 21.945C26.3728 22.0472 25.3506 23.0013 25.112 24.9776C25.0439 25.4546 25.0098 25.9317 25.0098 26.4087C25.0098 29.3391 25.0098 32.3035 25.0098 35.2339C25.0098 35.5405 24.9417 35.6087 24.635 35.6087C22.9994 35.6087 21.3298 35.6087 19.6943 35.6087C19.4217 35.6087 19.3535 35.5405 19.3535 35.2679C19.3535 29.4413 19.3535 23.6146 19.3535 17.7879C19.3535 17.5154 19.4557 17.4472 19.7283 17.4472C21.2957 17.4472 22.8631 17.4472 24.4306 17.4472C24.7031 17.4472 24.8054 17.5494 24.7713 17.822C24.7713 18.4694 24.7713 19.1509 24.7713 19.8665Z" fill="#FEFEFE"/>
    <path d="M15.8106 26.5099C15.8106 29.4062 15.8106 32.2684 15.8106 35.1647C15.8106 35.4714 15.7424 35.5736 15.4017 35.5736C13.7661 35.5395 12.1306 35.5736 10.495 35.5736C10.2224 35.5736 10.1543 35.5054 10.1543 35.2329C10.1543 29.4062 10.1543 23.5795 10.1543 17.7529C10.1543 17.5143 10.2224 17.4121 10.461 17.4121C12.1306 17.4121 13.7661 17.4121 15.4358 17.4121C15.7424 17.4121 15.8106 17.5484 15.8106 17.821C15.8106 20.7173 15.8106 23.6136 15.8106 26.5099Z" fill="#FEFEFE"/>
    <path d="M16.2532 11.6198C16.2532 13.4258 14.788 14.891 12.982 14.891C11.2102 14.891 9.71094 13.4258 9.71094 11.6539C9.71094 9.848 11.1761 8.38281 12.982 8.38281C14.788 8.38281 16.2532 9.848 16.2532 11.6198Z" fill="#FEFEFE"/>
  </g>
  <defs>
    <clipPath id="clip0_2293_2557">
      <rect width="46" height="46" fill="white"/>
    </clipPath>
  </defs>
</svg>