<svg xmlns="http://www.w3.org/2000/svg" width="46" height="46" viewBox="0 0 46 46" fill="none">
  <g clip-path="url(#clip0_2293_2551)">
    <path d="M23 46C35.7025 46 46 35.7025 46 23C46 10.2975 35.7025 0 23 0C10.2975 0 0 10.2975 0 23C0 35.7025 10.2975 46 23 46Z" fill="black"/>
    <path d="M18.3655 36.2551C29.6099 36.2551 35.7433 26.9529 35.7433 18.8773C35.7433 18.6047 35.7433 18.3662 35.7092 18.0936C36.9018 17.2418 37.924 16.1514 38.7418 14.9247C37.6514 15.4018 36.4588 15.7425 35.2322 15.8788C36.4929 15.1292 37.447 13.9366 37.924 12.5055C36.7314 13.221 35.4366 13.6981 34.0396 14.0047C32.9151 12.8121 31.3477 12.0625 29.5759 12.0625C26.2025 12.0625 23.4766 14.7884 23.4766 18.1618C23.4766 18.6388 23.5447 19.1158 23.647 19.5588C18.5699 19.3203 14.0722 16.8669 11.0736 13.1869C10.5625 14.0729 10.2559 15.1292 10.2559 16.2536C10.2559 18.3662 11.3462 20.2403 12.9818 21.3306C11.9936 21.2966 11.0396 21.024 10.2218 20.581C10.2218 20.6151 10.2218 20.6151 10.2218 20.6492C10.2218 23.6136 12.3344 26.0669 15.1285 26.6462C14.6173 26.7825 14.0722 26.8506 13.527 26.8506C13.1181 26.8506 12.7433 26.8166 12.3685 26.7484C13.1522 29.1677 15.401 30.9395 18.0588 30.9736C15.9803 32.6092 13.3225 33.5973 10.4603 33.5973C9.98327 33.5973 9.47215 33.5632 8.99512 33.5292C11.687 35.2329 14.8899 36.2551 18.3655 36.2551Z" fill="white"/>
  </g>
  <defs>
    <clipPath id="clip0_2293_2551">
      <rect width="46" height="46" fill="white"/>
    </clipPath>
  </defs>
</svg>